<svg width="16" height="16" viewBox="0 0 16 16" fill="none" xmlns="http://www.w3.org/2000/svg">
  <path
    d="M8 0C3.57803 0 0 3.57834 0 8C0 12.422 3.57834 16 8 16C12.422 16 16 12.4217 16 8C16 3.57803 12.4216 0 8 0ZM8 14.75C4.26897 14.75 1.25 11.7308 1.25 8C1.25 4.26897 4.26922 1.25 8 1.25C11.731 1.25 14.75 4.26922 14.75 8C14.75 11.731 11.7308 14.75 8 14.75Z"
    fill="#90A4AE"/>
  <path
    d="M4 4.88889C4 4.39797 4.39797 4 4.88889 4H6.34633C6.53763 4 6.70747 4.12241 6.76797 4.3039L7.43366 6.30098C7.5036 6.51081 7.40861 6.74014 7.21079 6.83905L6.20756 7.34067C6.69744 8.42721 7.57279 9.30256 8.65933 9.79244L9.16095 8.78921C9.25986 8.59139 9.48919 8.4964 9.69902 8.56634L11.6961 9.23203C11.8776 9.29253 12 9.46237 12 9.65367V11.1111C12 11.602 11.602 12 11.1111 12H10.6667C6.98477 12 4 9.01523 4 5.33333V4.88889Z"
    fill="#90A4AE"/>
</svg>
