<svg width="140" height="32" viewBox="0 0 140 32" fill="none" xmlns="http://www.w3.org/2000/svg">
  <path
    d="M5.168 16.79V25.5808C5.168 26.9594 5.90513 27.6882 7.30027 27.6882C8.02448 27.6882 8.9465 27.5423 9.91212 27.2765L10.4967 31.1962C9.28398 31.6788 7.15413 31.9992 5.86314 31.9992C1.91751 31.9992 0 30.1372 0 26.3064V16.79H5.168V16.79Z"
    fill="#054375"/>
  <path
    d="M25.1698 9.36554C23.2515 9.95415 20.7341 11.4607 19.6426 12.1961L19.4375 12.3338L19.0613 9.77316H14.7249V31.5467H19.8928V17.3753L19.9655 17.3289C21.841 16.1239 23.5349 15.1187 25.6761 14.1453L25.1698 9.36554Z"
    fill="#054375"/>
  <path d="M29.0929 2.04872V7.97392H34.2609V1.31744L29.0929 2.04872Z" fill="#054375"/>
  <path d="M34.2609 9.77234H29.0929V31.5459H34.2609V9.77234Z" fill="#054375"/>
  <path
    d="M56.3724 16.7362C56.3724 11.7452 54.2635 9.31907 49.9255 9.31907C47.4848 9.31907 45.0151 9.99165 43.5166 10.6218L43.301 10.7131V0L38.1331 0.727202V31.2565C40.7853 31.7693 44.2142 31.9992 46.4659 31.9992C54.7149 31.9992 56.3716 28.6404 56.3716 23.2223V16.7362H56.3724ZM51.2044 23.4032C51.2044 25.9925 50.4568 27.5969 46.7364 27.5969C45.4099 27.5969 44.3304 27.5373 43.4359 27.4142L43.301 27.3955V15.0486L43.3915 15.0062C44.7099 14.385 46.6823 13.7214 48.264 13.7214C50.2703 13.7214 51.2044 14.6361 51.2044 16.6V23.4032Z"
    fill="#054375"/>
  <path
    d="M94.235 16.2821V31.5459H99.403V15.6935C99.403 11.4045 97.8383 9.31989 94.6177 9.31989C92.1488 9.31989 88.7376 10.2215 85.9279 11.6164L85.7616 11.6988L85.2029 9.77316H81.2985V31.5467H86.4665V16.2788L86.5496 16.2348C88.6439 15.1293 91.0192 14.3573 92.3264 14.3573C93.6287 14.3565 94.235 14.9679 94.235 16.2821Z"
    fill="#054375"/>
  <path
    d="M112.721 27.552C109.548 27.552 108.477 26.5851 108.477 23.7212V17.5987C108.477 14.7339 109.548 13.767 112.721 13.767C113.658 13.767 115.571 13.9146 117.129 14.3173L117.758 10.087C116.116 9.55711 113.992 9.31989 112.587 9.31989C105.91 9.31989 103.309 11.6539 103.309 17.6435V23.6763C103.309 29.666 105.91 32 112.587 32C114.338 32 116.349 31.7008 117.758 31.2345L117.129 27.0009C115.679 27.3612 114.159 27.552 112.721 27.552Z"
    fill="#054375"/>
  <path
    d="M129.834 31.9992C136.049 31.9992 139.2 29.1222 139.2 23.4481V17.8694C139.2 12.1953 136.049 9.31827 129.834 9.31827C123.618 9.31827 120.467 12.1953 120.467 17.8694V23.4481C120.467 29.1222 123.618 31.9992 129.834 31.9992ZM125.635 17.6884C125.635 14.9818 126.969 13.7206 129.834 13.7206C132.698 13.7206 134.032 14.9818 134.032 17.6884V23.6299C134.032 26.3365 132.698 27.5977 129.834 27.5977C126.969 27.5977 125.635 26.3365 125.635 23.6299V17.6884Z"
    fill="#054375"/>
  <path d="M0 14.9907H11.3436L10.6234 9.77234H5.168V3.53653L0 4.26373V14.9907Z"
    fill="url(#paint0_linear_1501_377)"/>
  <path
    d="M68.2473 9.31908C65.8574 9.31908 62.9364 9.71854 60.9211 10.3161L61.5477 14.235C63.5863 13.8151 65.6879 13.5844 67.4835 13.5844C70.8858 13.5844 71.8175 14.1502 71.8175 16.8731V17.9802C69.355 18.0186 65.8364 18.4376 63.1535 19.7338C61.0229 20.7635 59.8271 22.4331 59.8271 25.5799C59.8271 27.9768 60.5481 31.9984 65.3762 31.9984C67.6563 31.9984 70.2956 31.3152 72.159 30.0744L72.339 29.9554L72.7686 31.5451H76.9855V17.1438C76.9847 11.367 74.6982 9.31908 68.2473 9.31908ZM71.8167 26.7148L71.7376 26.7604C70.9819 27.1917 69.074 27.914 67.1718 27.914C65.4755 27.914 64.8151 27.2463 64.8151 25.5343C64.8151 24.3065 65.1364 23.4334 65.8599 23.0356C67.3374 22.2236 69.0264 21.5747 69.9088 21.5747C71.2103 21.5747 71.8167 22.9059 71.8167 24.2201V26.7148Z"
    fill="#054375"/>
  <defs>
    <linearGradient id="paint0_linear_1501_377" x1="5.66766" y1="14.9907" x2="5.66766" y2="3.53653"
      gradientUnits="userSpaceOnUse">
      <stop offset="0.03125" stop-color="#8CD133"/>
      <stop offset="0.958333" stop-color="#05BDFB"/>
    </linearGradient>
  </defs>
</svg>
